<?xml version="1.0" encoding="UTF-8"?>
<!-- Created with Inkscape (http://www.inkscape.org/) -->
<svg width="766.7" height="769.7" version="1.1" viewBox="0 0 766.7 769.7" xml:space="preserve" xmlns="http://www.w3.org/2000/svg"><defs><clipPath id="clipPath2248"><path d="m0 800h800v-800h-800z"/></clipPath></defs><g transform="matrix(1.3333 0 0 -1.3333 -163.77 993.23)"><g transform="translate(-27.14,30.907)"><g clip-path="url(#clipPath2248)"><g transform="translate(699.89,580.81)"><path d="m0 0-75.814-75.816c-6.296-6.229-14.713-9.676-23.461-9.676-0.796 0-1.657 0-2.519 0.067l-1.922 0.132-27.207 2.08c-7.934 11.551-16.975 22.465-27.099 32.588-10.116 10.115-21.021 19.151-32.562 27.081l-2.004 26.128-0.198 2.983c-0.731 9.676 2.783 19.153 9.61 25.979l75.882 75.883c1.325 1.325 2.982 1.921 4.64 1.921 3.244 0 6.361-2.319 6.626-6.097l3.976-51.361 19.285 19.285c3.778 3.844 8.881 5.766 13.852 5.766s10.007-1.922 13.85-5.766l11.666-11.73c7.686-7.688 7.686-20.081 0-27.769l-16.834-16.833 46.06-3.578c5.633-0.398 8.15-7.291 4.173-11.267m-173.25-65.851c7.145-7.145 13.698-14.725 19.646-22.673l-23.278-23.278-15.766-15.767c-10.43 15.59-23.647 29.162-38.938 39.996l38.901 38.901c6.774-5.28 13.265-11.01 19.435-17.179m0-292.88c-39.115-39.113-91.121-60.654-146.44-60.654-55.316 0-107.32 21.541-146.44 60.654-39.115 39.116-60.657 91.122-60.657 146.44s21.542 107.32 60.657 146.44 91.121 60.657 146.44 60.657c38.899 0 76.153-10.666 108.45-30.591l0.07-0.923-20.437-20.436-18.954-18.954c-20.769 10.585-44.261 16.56-69.126 16.56-84.226 0-152.75-68.523-152.75-152.75s68.524-152.75 152.75-152.75c84.227 0 152.75 68.523 152.75 152.75 0 23.35-5.274 45.488-14.679 65.298l19.962 19.962 20.254 20.255c18.78-31.607 28.806-67.789 28.806-105.52 0-55.316-21.54-107.32-60.655-146.44m194.93 373.26c-3.831 10.255-13.336 17.39-24.233 18.199l-5.479 0.426c4.446 14.158 1.077 30.264-10.105 41.474l-11.66 11.723-0.019 0.021-0.02 0.019c-7.785 7.787-18.111 12.075-29.077 12.075-5.136 0-10.204-0.98-14.929-2.823l-0.713 9.218c-0.553 7.48-3.957 14.275-9.59 19.142-5.129 4.43-11.702 6.87-18.507 6.87-7.503 0-14.558-2.922-19.865-8.227l-75.882-75.884c-11.255-11.253-17.035-26.817-15.865-42.719l0.194-2.898 0.014-0.218 0.829-10.785c-32.434 17.106-68.746 26.186-106.46 26.186-61.067 0-118.48-23.781-161.66-66.963s-66.963-100.6-66.963-161.66 23.781-118.48 66.963-161.66c43.182-43.182 100.6-66.963 161.66-66.963 61.069 0 118.48 23.781 161.66 66.963 43.18 43.179 66.961 100.59 66.961 161.66 0 37.703-9.075 74.006-26.171 106.43l11.874-0.908 0.084-7e-3 0.082-5e-3 1.862-0.128c1.637-0.121 3.03-0.121 4.055-0.121 14.531 0 28.242 5.648 38.605 15.902l0.04 0.04 0.041 0.04 75.816 75.816c7.769 7.771 10.301 19.454 6.451 29.765" fill="#fcfcfc"/></g><g transform="translate(380.2,521.27)" fill="#382d6d"><path d="m0 0c-84.226 0-152.75-68.523-152.75-152.75s68.524-152.75 152.75-152.75c84.227 0 152.75 68.523 152.75 152.75s-68.523 152.75-152.75 152.75m0-359.84c-55.316 0-107.32 21.541-146.44 60.655-39.115 39.115-60.657 91.121-60.657 146.44s21.542 107.32 60.657 146.44c39.115 39.114 91.121 60.656 146.44 60.656 55.317 0 107.32-21.542 146.44-60.656 39.115-39.116 60.655-91.122 60.655-146.44s-21.54-107.32-60.655-146.44c-39.115-39.114-91.121-60.655-146.44-60.655" fill="#382d6d"/></g><g transform="translate(380.2,436.15)" fill="#5b56ff"><path d="m0 0c-37.289 0-67.627-30.337-67.627-67.627s30.338-67.627 67.627-67.627c37.29 0 67.627 30.337 67.627 67.627s-30.337 67.627-67.627 67.627m0-188.27c-66.524 0-120.64 54.121-120.64 120.64s54.121 120.64 120.64 120.64c66.525 0 120.65-54.121 120.65-120.64s-54.121-120.64-120.65-120.64" fill="#5b56ff"/></g><g transform="translate(649.65,595.65)" fill="#1a1a1a"><path d="m0 0 16.834 16.833c7.687 7.688 7.687 20.081 0 27.769l-11.666 11.73c-3.843 3.844-8.879 5.766-13.85 5.766-4.97 0-10.074-1.922-13.851-5.766l-19.285-19.285-3.977 51.361c-0.265 3.778-3.382 6.097-6.626 6.097-1.657 0-3.314-0.596-4.64-1.922l-75.881-75.882c-6.828-6.826-10.341-16.303-9.611-25.979l0.199-2.983 3.645-47.517-27.438-27.437-49.374-49.373-1.125-1.127-68.99-68.991c-2.783-2.783-4.507-6.494-4.772-10.404l-1.325-16.635c-0.795-9.675 6.893-17.894 16.502-17.894h0.861l17.562 0.863c4.109 0.199 8.02 1.922 10.87 4.838l68.791 68.791 1.127 1.126 79.197 79.196 43.341-3.314 1.921-0.132c0.863-0.066 1.723-0.066 2.519-0.066 8.748 0 17.165 3.446 23.461 9.676l75.814 75.816c3.977 3.976 1.46 10.868-4.172 11.266z" fill="#1a1a1a"/></g></g></g></g></svg>
